<?xml version="1.0" encoding="UTF-8"?><svg id="Camada_2" xmlns="http://www.w3.org/2000/svg" viewBox="0 0 1316 350.98"><g id="Camada_1-2"><g><path d="M234.67,213.96c0-10.63-4.54-18.92-12.17-25.9-11.29-10.32-25.03-13.8-39.77-13.84-56.97-.16-113.94-.04-170.91-.23C3.35,173.97-.03,177.5,0,185.85c.16,50.67,.08,101.34,.15,152.01,.02,10.57,1.98,12.48,12.78,12.5,29.08,.07,58.17,.02,87.25,.02,0-.03,0-.06,0-.08,12.89,0,25.79,0,38.68,0s25.79,.03,38.68-.03c5.39-.03,10.78-.13,16.16-.45,24.13-1.46,41.7-23.64,41.32-45.02-.53-30.27-.36-60.56-.35-90.84Zm-26,86.88c-.04,16.05-7.48,23.6-23.47,23.67-24.58,.1-49.16,.03-73.74,.03v.11c-25.48,0-50.96-.23-76.43,.14-7.57,.11-9.83-2.56-9.78-9.91,.26-35.37,.18-70.74-.02-106.11-.04-6.43,1.96-9.03,8.78-9.01,50.66,.19,101.31-.01,151.97,.11,15.13,.04,22.84,8.53,22.76,23.64-.14,25.78-.01,51.55-.08,77.33Z"/><path d="M91.48,55.28c12.29-4.28,24.31-9.52,36.82-12.98,43.43-12.03,87.83-18.25,132.84-18.97,28.77-.46,57.62-.27,86.32,1.56,24.72,1.58,49.22,6.3,73.89,8.9,30.06,3.17,60.21,5.5,90.31,8.36,13.1,1.24,26.17,2.88,39.25,4.34,28.56,3.19,57.16,6,85.65,9.7,18.07,2.34,35.95,6.18,53.98,8.92,3.98,.6,9.54-2.49,12.11-.68,7.9,5.57,14.79,3.94,21.84-1.9,.69,2.54,1.27,3.46,1.09,4.18-1.69,6.58,1.43,10.65,7.23,12.44,5.93,1.83,10.04-.59,13.02-6.4,1.24-2.42,5.67-2.99,8-5.11,3.19-2.91,8.31-6.77,7.98-9.71-.43-3.84-4.74-8.68-8.56-10.3-4.35-1.84-9.21,.19-10.68,6.4-.45,1.89-3.24,3.22-4.96,4.81-.62-2.01-.98-4.16-1.93-6-1.95-3.78-3.46-8.57-6.64-10.65-2.15-1.41-6.84,1.2-10.44,1.81-2.45,.42-6,1.66-7.27,.53-10.29-9.12-10.16-9.26-21.72-.84-4.02-7.93-10.78-7.64-18.07-8.45-19.55-2.16-38.9-6.13-58.42-8.73-24.31-3.25-48.69-5.98-73.07-8.69-30.64-3.41-61.28-6.86-91.97-9.73-23.56-2.2-47.23-3.22-70.81-5.27-49.1-4.27-97.94-4.24-146.77,4.21-34.25,5.93-67.53,14.77-99.82,27.4-15.01,5.87-29.7,12.56-44.53,18.88,2.19,2.06,3.91,2.49,5.31,2Z"/><path d="M765.15,174.1c-9.82,.07-14.08,4.87-14.08,16.58,.01,37.78,.18,75.55,.23,113.33,0,1.55-.54,3.1-.98,5.45-7.65-5.35-14.48-10.11-21.28-14.9-31.54-22.24-63.07-44.49-94.59-66.76-24.17-17.07-48.21-34.35-72.64-51.04-3.14-2.15-9-2.83-12.35-1.36-2.55,1.12-4.39,6.72-4.42,10.34-.32,49.76-.31,99.53-.28,149.3,0,10.62,4.73,15.74,14.04,15.84,9.27,.1,12.59-3.66,12.63-15.43,.12-33.88,.03-67.76,.03-101.64,0-5.82,0-11.64,0-17.46,.9-.34,1.81-.69,2.71-1.03,3.79,2.75,7.57,5.53,11.38,8.25,37.23,26.59,74.47,53.18,111.72,79.75,20.93,14.94,41.71,30.11,63,44.52,3.58,2.42,9.62,2.54,14.1,1.63,1.73-.35,3.21-6.52,3.22-10.05,.19-50.97,.15-101.94,.08-152.92-.01-9.03-3.65-12.48-12.51-12.42Z"/><path d="M1022.29,324.19c-61.46,0-122.93-.06-184.39,.23-7.05,.03-9.62-1.84-9.29-9.07,.49-10.77,.53-21.61-.16-32.36-.55-8.49,1.94-11.37,10.9-11.3,53.97,.38,107.94,.18,161.91,.07,10.64-.02,15.62-3.97,15.74-11.78,.11-7.45-5.68-12.54-15.39-12.55-62.36-.06-124.73,.01-187.09,.14-7.56,.02-12.22,3.12-12.14,11.83,.25,25.48,.02,50.97,.11,76.45,.05,12.96,1.55,14.41,14.58,14.43,34.18,.05,68.36,.02,102.54,.02v.04c34.78,0,69.56-.09,104.34,.07,6.96,.03,11.52-1.95,12.81-9.44,1.97-11.39-2.48-16.79-14.47-16.79Z"/><path d="M520.07,324.31c-61.18-.03-122.36-.16-183.54,.16-8.32,.04-11.15-2.33-10.61-10.69,.7-10.75,.72-21.61,.07-32.37-.46-7.69,2.17-9.77,9.64-9.73,53.38,.27,106.77,.15,160.15,.14,2.99,0,6.64,.87,8.84-.49,3.78-2.35,8.06-5.64,9.43-9.5,.99-2.79-1.41-8.46-4.08-10.45-3.49-2.6-8.73-3.91-13.22-3.92-60.88-.2-121.76-.11-182.64-.02-10.85,.02-13.92,3.1-13.96,13.86-.07,24.29-.07,48.59,0,72.88,.04,14.44,2.06,16.32,16.76,16.32,33.59,0,67.18,0,100.77,0,0-.04,0-.09,0-.13,34.79,0,69.58-.08,104.37,.06,8.2,.03,12.2-3.31,12.22-11.72,.02-11.6-2.46-14.38-14.18-14.38Z"/><path d="M1312.28,328.95c-18.16-27.05-36.44-54.02-54.77-80.95-15.31-22.48-30.61-44.97-46.21-67.25-6.33-9.03-10.57-9.61-18.63-4.08-8.02,5.5-8.92,9.92-3.12,18.8,7.53,11.53,15.43,22.82,23.09,34.26,9.24,13.8,18.39,27.64,28.48,42.81h-99.26c-.92-3.84-1.26-6.79-2.46-9.33-.34-.71-4.4-.81-4.71-.19-1.28,2.63-1.79,5.64-2.24,7.27-4.95,3.52-9.91,5.45-12.37,9.08-10.39,15.32-20.01,31.15-29.96,46.77-5.64,8.85-4.74,13.67,3.76,19.35,6.42,4.29,13.13,2.69,18.27-4.9,6.7-9.9,12.65-20.34,19.78-29.9,2.4-3.22,7.42-6.29,11.28-6.34,37.47-.45,74.96-.11,112.43-.34,5.89-.04,9.22,2.12,12.29,6.93,7.08,11.08,14.7,21.81,22.21,32.61,6,8.63,10.18,9.44,18.63,3.93,8.35-5.44,9.36-9.79,3.5-18.54Z"/><path d="M815.86,200.06c34.51,.05,69.01,.02,103.52,.02v-.14c35.11,0,70.21,.06,105.32-.04,9.13-.03,12.32-3.51,12.43-12.54,.1-8.71-3.71-13.22-12.2-13.23-69.91-.06-139.82-.02-209.73,.13-10.57,.02-12.9,2.67-12.86,12.69,.05,10.49,2.64,13.1,13.52,13.12Z"/><path d="M314.21,174.09c-11.51,0-14.12,2.59-14.12,12.51,0,11.16,2.23,13.42,13.93,13.43,34.19,.05,68.38,.02,102.57,.02,34.79,0,69.58,.04,104.37-.02,10.66-.02,13.21-2.48,13.29-12.26,.08-10.72-2.34-13.5-13.1-13.52-68.98-.14-137.96-.2-206.94-.17Z"/><path d="M1138.64,110.17c-7.91,8.02-8.98,12.1-4.83,17.25,5.11,6.35,9.38,5.94,20.93-2.23,1.85,2.08,3.74,4.2,5.71,6.41-10.37,6.08-13.96,12.43-9.87,18.17,3.23,4.53,7.92,7.84,13.92,4.63,7.51-4.02,7.82-10.14,1.41-20.29,10.91-8.87,12.94-13.68,8.27-19.59-4.42-5.59-10.29-4.85-20.55,3.03-2.47-2.25-5.02-4.57-7.48-6.81,8.8-10.25,9.62-15.19,4.03-20.12-5.11-4.51-10.49-4.32-15.33,.11-5.7,5.2-4.71,9.84,3.79,19.46Z"/><path d="M820.68,72.35c-3.95,11.14-2.03,17.94,6.98,18.96,3.69,.42,9.82-3.98,11.7-7.76,3.55-7.13-1.59-11.87-13.86-14.31,4.55-10.41,3.14-17-4.75-19.97-6.95-2.61-10.87,2.2-13.52,7.3-3.23,6.21,1.7,11.68,13.46,15.77Z"/><path d="M859.31,84.62c.04,3.44,5.28,8.52,9.17,9.83,6.63,2.23,11.22-3.45,13.14-15.04,8.03,.57,15.96-.15,16.46-9.46,.19-3.48-4.55-9.34-8.2-10.5-8.23-2.62-11.29,.96-14.91,14.31-8.02-.55-15.78,1.19-15.66,10.86Z"/><path d="M793.46,57.07c-.33-6.12-3.7-10.45-10.37-9.8-10.72,1.05-10.82,9.15-9.86,17.29-8.96-.9-15.03,3.21-15.25,10.23-.2,6.26,2.91,10.35,9.34,11.05,7.14,.78,9.87-3.42,11.3-17.59,8.21,.12,15.4-1.08,14.85-11.18Z"/><path d="M1064.5,324.27c-7.46-.13-14.55,6.07-14.53,12.7,.02,6.64,7.08,13.64,13.92,13.79,7.49,.17,14.48-6.11,14.52-13.05,.04-7.35-6.12-13.31-13.91-13.44Z"/><path d="M269.44,324.3c-8.88-.01-13.74,4.52-13.67,12.76,.07,8.23,5.44,13.79,13.25,13.72,7.28-.07,13.95-6.65,13.8-13.63-.15-7.12-6.11-12.84-13.38-12.85Z"/><path d="M810.76,77.29c-.31-6.89-3.95-10.28-13.45-10.99-2.28,2.85-8.76,7.65-8.04,10.84,1.03,4.58,6.88,10.47,11.42,11.22,4.93,.81,10.38-3.85,10.06-11.07Z"/><path d="M851.93,76.58c6.18,.01,10.51-3.78,11.05-10.41-.7-6.82-4-10.91-10.93-10.75-6.34,.14-10.31,4.08-10.55,10.07-.26,6.51,3.98,11.09,10.43,11.1Z"/><path d="M1172.57,160.95c0,6.06,2.93,10.32,9.53,10.74,6.53,.42,10.91-2.29,12.05-8.63,.02-6.67-2.31-10.94-8.96-11.72-6.78-.79-12.62,3.41-12.61,9.61Z"/><path d="M894.17,87.09c.14,6.44,3.99,9.81,10.21,10.04,7.13,.26,9.87-4.31,10.57-10.53,.31-7.35-4.26-11.19-10.38-10.81-5.78,.36-10.56,4.39-10.41,11.31Z"/><path d="M1175.97,210.59c.36-9.44-3.87-13.06-10.12-13.28-6.49-.23-10.66,3.69-10.32,10.57,.32,6.46,3.7,10.47,10.72,10.41,6.68-.06,9.35-3.97,9.71-7.7Z"/><path d="M1165.42,168.66c-6.17-.08-11.13,4.19-9.79,9.99,.92,3.97,6.09,8.68,10.23,9.77,5.85,1.54,9.75-2.93,10.4-8.51-.21-7.76-4.52-11.17-10.83-11.25Z"/><path d="M1115.98,119.65c3.03,.15,6.24-3.13,11.83-6.33-5.22-4.23-8.63-8.87-10.88-8.37-3.21,.72-6.35,4.88-7.84,8.3-.47,1.08,4.34,6.27,6.89,6.4Z"/><path d="M948.4,96.61c2.45,.08,6.96-4.63,7.05-7.34,.1-2.9-3.9-5.95-7.78-11.18-3.5,5.37-7.4,8.73-7.02,11.49,.39,2.83,4.92,6.94,7.74,7.02Z"/><path d="M1057.34,105.44c-.12,3.48,2.83,7.06,4.49,10.6,1.19,.06,2.38,.11,3.56,.17,2.32-2.95,6.44-5.91,6.42-8.84-.02-2.72-4.08-6.74-7.11-7.62-1.9-.55-7.29,3.55-7.37,5.7Z"/><path d="M972.74,71.77c-.5-3-4.81-5.37-7.46-8.01-2.59,2.76-7.02,5.39-7.23,8.32-.2,2.79,4,5.9,8.04,11.18,3.34-5.41,7.1-8.79,6.66-11.48Z"/><path d="M1120.54,91.28c3.02,.11,6.18-3.74,11.5-7.39-5.19-3.76-8.52-7.99-11.19-7.61-2.98,.42-6.92,4.76-7.47,7.91-.36,2.06,4.51,7,7.16,7.09Z"/><path d="M1165.98,235.67c-.02-1.22-.05-2.43-.07-3.65-3.11-1.83-6.33-5.23-9.28-5-2.6,.2-4.89,4.45-7.31,6.92,2.84,2.44,5.41,6.16,8.62,6.86,2.21,.48,5.33-3.27,8.04-5.12Z"/><path d="M1093.35,119.8c3.22-.21,6.21-3.88,11.45-7.59-5.38-3.56-8.84-7.63-11.69-7.24-2.78,.38-6.25,5.09-6.83,8.36-.33,1.84,4.69,6.63,7.07,6.47Z"/><path d="M938.7,72.24c-1.14-3.42-5.55-5.75-8.6-8.54-2.33,3.04-6.01,5.87-6.53,9.19-.35,2.28,3.7,5.24,7.11,9.59,3.8-4.63,8.65-8.35,8.02-10.24Z"/><path d="M1101.82,71.84c-5.39-4-8.33-7.85-11.38-7.94-2.41-.07-6.66,4.32-6.92,7.04-.23,2.32,3.88,6.93,6.39,7.16,2.96,.27,6.25-3.07,11.92-6.26Z"/><path d="M1057.48,79.51c2.51,.35,5.46-2.5,10.83-5.3-5.19-3.7-8.14-7.43-10.68-7.17-2.75,.28-5.12,4.29-7.66,6.68,2.48,2.06,4.79,5.41,7.51,5.79Z"/><path d="M1043.91,93.11c-1.6,1.7-4.39,3.33-4.48,5.11-.1,1.95,2.29,4.02,4.33,7.18,2.59-2.98,5.79-5.21,5.46-6.62-.51-2.18-3.42-3.8-5.31-5.66Z"/><path d="M1015.23,85.23c1.79,.14,3.8-2.36,7.27-4.8-3.64-2.2-5.82-4.58-7.64-4.33-1.88,.26-3.41,3.08-5.09,4.77,1.81,1.56,3.54,4.2,5.46,4.35Z"/><path d="M983.38,88.17c1.6-1.76,4.23-3.37,4.49-5.31,.23-1.7-2.18-3.77-4.69-7.6-2.16,4.11-4.17,6.22-4.02,8.17,.13,1.68,2.72,3.17,4.22,4.75Z"/><path d="M1032.29,70.8c-1.13-.35-4.64,2.43-4.55,3.62,.15,2.05,2.27,3.95,5.35,8.62,2.15-3.55,4.54-5.77,4.19-7.39-.42-1.97-2.93-4.21-4.99-4.85Z"/><path d="M1026.13,94.71c1.73-.08,4.91-2.79,4.7-3.79-.43-2.11-2.66-3.85-5.03-6.86-2.18,3.19-4.25,5.07-4.57,7.21-.15,.98,3.21,3.52,4.89,3.44Z"/><path d="M1148.56,248.71c-1.99,.51-3.47,3.04-5.17,4.7,1.74,1.34,3.4,3.59,5.25,3.76,1.61,.15,3.44-2.04,6.59-4.15-3.22-2.2-5.3-4.66-6.67-4.32Z"/></g></g></svg>